<?xml version="1.0" encoding="UTF-8"?>
<svg height="128px" viewBox="0 0 128 128" width="128px" xmlns="http://www.w3.org/2000/svg" xmlns:xlink="http://www.w3.org/1999/xlink">
    <filter id="a" height="100%" width="100%" x="0%" y="0%">
        <feColorMatrix color-interpolation-filters="sRGB" values="0 0 0 0 1 0 0 0 0 1 0 0 0 0 1 0 0 0 1 0"/>
    </filter>
    <linearGradient id="b" gradientTransform="matrix(0.232143 0 0 0.328947 -8.098267 264.087631)" gradientUnits="userSpaceOnUse" x1="88.595886" x2="536.595886" y1="-449.394012" y2="-449.394012">
        <stop offset="0" stop-color="#77767b"/>
        <stop offset="0.0384615" stop-color="#c0bfbc"/>
        <stop offset="0.0768555" stop-color="#9a9996"/>
        <stop offset="0.923077" stop-color="#9a9996"/>
        <stop offset="0.961538" stop-color="#c0bfbc"/>
        <stop offset="1" stop-color="#77767b"/>
    </linearGradient>
    <clipPath id="c">
        <path d="m 12 12 h 105 v 101 h -105 z m 0 0"/>
    </clipPath>
    <clipPath id="d">
        <path d="m 20.46875 12.261719 h 88 c 4.417969 0 8 3.582031 8 8 v 84 c 0 4.417969 -3.582031 8 -8 8 h -88 c -4.417969 0 -8 -3.582031 -8 -8 v -84 c 0 -4.417969 3.582031 -8 8 -8 z m 0 0"/>
    </clipPath>
    <clipPath id="e">
        <path d="m 12 12 h 105 v 24 h -105 z m 0 0"/>
    </clipPath>
    <clipPath id="f">
        <path d="m 20.46875 12.261719 h 88 c 4.417969 0 8 3.582031 8 8 v 84 c 0 4.417969 -3.582031 8 -8 8 h -88 c -4.417969 0 -8 -3.582031 -8 -8 v -84 c 0 -4.417969 3.582031 -8 8 -8 z m 0 0"/>
    </clipPath>
    <clipPath id="g">
        <path d="m 12 35 h 51 v 27 h -51 z m 0 0"/>
    </clipPath>
    <clipPath id="h">
        <path d="m 20.46875 12.261719 h 88 c 4.417969 0 8 3.582031 8 8 v 84 c 0 4.417969 -3.582031 8 -8 8 h -88 c -4.417969 0 -8 -3.582031 -8 -8 v -84 c 0 -4.417969 3.582031 -8 8 -8 z m 0 0"/>
    </clipPath>
    <clipPath id="i">
        <path d="m 12 65 h 51 v 27 h -51 z m 0 0"/>
    </clipPath>
    <clipPath id="j">
        <path d="m 20.46875 12.261719 h 88 c 4.417969 0 8 3.582031 8 8 v 84 c 0 4.417969 -3.582031 8 -8 8 h -88 c -4.417969 0 -8 -3.582031 -8 -8 v -84 c 0 -4.417969 3.582031 -8 8 -8 z m 0 0"/>
    </clipPath>
    <clipPath id="k">
        <path d="m 12 91 h 51 v 22 h -51 z m 0 0"/>
    </clipPath>
    <clipPath id="l">
        <path d="m 20.46875 12.261719 h 88 c 4.417969 0 8 3.582031 8 8 v 84 c 0 4.417969 -3.582031 8 -8 8 h -88 c -4.417969 0 -8 -3.582031 -8 -8 v -84 c 0 -4.417969 3.582031 -8 8 -8 z m 0 0"/>
    </clipPath>
    <clipPath id="m">
        <path d="m 66 35 h 51 v 78 h -51 z m 0 0"/>
    </clipPath>
    <clipPath id="n">
        <path d="m 20.46875 12.261719 h 88 c 4.417969 0 8 3.582031 8 8 v 84 c 0 4.417969 -3.582031 8 -8 8 h -88 c -4.417969 0 -8 -3.582031 -8 -8 v -84 c 0 -4.417969 3.582031 -8 8 -8 z m 0 0"/>
    </clipPath>
    <clipPath id="o">
        <path d="m 62 12 h 5 v 101 h -5 z m 0 0"/>
    </clipPath>
    <clipPath id="p">
        <path d="m 20.46875 12.261719 h 88 c 4.417969 0 8 3.582031 8 8 v 84 c 0 4.417969 -3.582031 8 -8 8 h -88 c -4.417969 0 -8 -3.582031 -8 -8 v -84 c 0 -4.417969 3.582031 -8 8 -8 z m 0 0"/>
    </clipPath>
    <clipPath id="q">
        <path d="m 12 61 h 51 v 5 h -51 z m 0 0"/>
    </clipPath>
    <clipPath id="r">
        <path d="m 20.46875 12.261719 h 88 c 4.417969 0 8 3.582031 8 8 v 84 c 0 4.417969 -3.582031 8 -8 8 h -88 c -4.417969 0 -8 -3.582031 -8 -8 v -84 c 0 -4.417969 3.582031 -8 8 -8 z m 0 0"/>
    </clipPath>
    <clipPath id="s">
        <path d="m 12 87 h 51 v 5 h -51 z m 0 0"/>
    </clipPath>
    <clipPath id="t">
        <path d="m 20.46875 12.261719 h 88 c 4.417969 0 8 3.582031 8 8 v 84 c 0 4.417969 -3.582031 8 -8 8 h -88 c -4.417969 0 -8 -3.582031 -8 -8 v -84 c 0 -4.417969 3.582031 -8 8 -8 z m 0 0"/>
    </clipPath>
    <clipPath id="u">
        <path d="m 12 12 h 105 v 101 h -105 z m 0 0"/>
    </clipPath>
    <clipPath id="v">
        <path d="m 20.46875 12.261719 h 88 c 4.417969 0 8 3.582031 8 8 v 84 c 0 4.417969 -3.582031 8 -8 8 h -88 c -4.417969 0 -8 -3.582031 -8 -8 v -84 c 0 -4.417969 3.582031 -8 8 -8 z m 0 0"/>
    </clipPath>
    <mask id="w">
        <g filter="url(#a)">
            <rect fill-opacity="0.25" height="153.6" width="153.6" x="-12.8" y="-12.8"/>
        </g>
    </mask>
    <clipPath id="x">
        <rect height="152" width="192"/>
    </clipPath>
    <mask id="y">
        <g filter="url(#a)">
            <rect fill-opacity="0.25" height="153.6" width="153.6" x="-12.8" y="-12.8"/>
        </g>
    </mask>
    <clipPath id="z">
        <rect height="152" width="192"/>
    </clipPath>
    <mask id="A">
        <g filter="url(#a)">
            <rect fill-opacity="0.25" height="153.6" width="153.6" x="-12.8" y="-12.8"/>
        </g>
    </mask>
    <clipPath id="B">
        <rect height="152" width="192"/>
    </clipPath>
    <clipPath id="C">
        <path d="m 77 49 h 30 v 29 h -30 z m 0 0"/>
    </clipPath>
    <clipPath id="D">
        <path d="m 20.46875 12.261719 h 88 c 4.417969 0 8 3.582031 8 8 v 84 c 0 4.417969 -3.582031 8 -8 8 h -88 c -4.417969 0 -8 -3.582031 -8 -8 v -84 c 0 -4.417969 3.582031 -8 8 -8 z m 0 0"/>
    </clipPath>
    <clipPath id="E">
        <path d="m 76 60 h 31 v 36 h -31 z m 0 0"/>
    </clipPath>
    <clipPath id="F">
        <path d="m 20.46875 12.261719 h 88 c 4.417969 0 8 3.582031 8 8 v 84 c 0 4.417969 -3.582031 8 -8 8 h -88 c -4.417969 0 -8 -3.582031 -8 -8 v -84 c 0 -4.417969 3.582031 -8 8 -8 z m 0 0"/>
    </clipPath>
    <path d="m 20.46875 16.261719 h 88 c 4.417969 0 8 3.582031 8 8 v 84 c 0 4.417969 -3.582031 8 -8 8 h -88 c -4.417969 0 -8 -3.582031 -8 -8 v -84 c 0 -4.417969 3.582031 -8 8 -8 z m 0 0" fill="url(#b)"/>
    <path d="m 20.46875 12.261719 h 88 c 4.417969 0 8 3.582031 8 8 v 84 c 0 4.417969 -3.582031 8 -8 8 h -88 c -4.417969 0 -8 -3.582031 -8 -8 v -84 c 0 -4.417969 3.582031 -8 8 -8 z m 0 0" fill="#deddda"/>
    <g clip-path="url(#c)">
        <g clip-path="url(#d)">
            <path d="m 35.363281 12.246094 h 58.292969 c 12.648438 0 22.902344 9.855468 22.902344 22.015625 v 56.042969 c 0 12.160156 -10.253906 22.015624 -22.902344 22.015624 h -58.292969 c -12.652343 0 -22.902343 -9.855468 -22.902343 -22.015624 v -56.042969 c 0 -12.160157 10.25 -22.015625 22.902343 -22.015625 z m 0 0" fill="#2e5bff"/>
        </g>
    </g>
    <g clip-path="url(#e)">
        <g clip-path="url(#f)">
            <path d="m 12.460938 12.246094 h 104.097656 v 23.015625 h -104.097656 z m 0 0" fill="#1638cc"/>
        </g>
    </g>
    <g clip-path="url(#g)">
        <g clip-path="url(#h)">
            <path d="m 12.460938 35.261719 h 49.964843 v 26.519531 h -49.964843 z m 0 0" fill="#ffffff"/>
        </g>
    </g>
    <g clip-path="url(#i)">
        <g clip-path="url(#j)">
            <path d="m 12.460938 65.785156 h 49.964843 v 25.519532 h -49.964843 z m 0 0" fill="#ffffff"/>
        </g>
    </g>
    <g clip-path="url(#k)">
        <g clip-path="url(#l)">
            <path d="m 12.460938 91.304688 h 49.964843 v 21.015624 h -49.964843 z m 0 0" fill="#ffffff"/>
        </g>
    </g>
    <g clip-path="url(#m)">
        <g clip-path="url(#n)">
            <path d="m 66.589844 35.261719 h 49.96875 v 77.058593 h -49.96875 z m 0 0" fill="#ffffff"/>
        </g>
    </g>
    <g clip-path="url(#o)">
        <g clip-path="url(#p)">
            <path d="m 62.425781 12.246094 h 4.164063 v 100.074218 h -4.164063 z m 0 0" fill="#2e5bff"/>
        </g>
    </g>
    <g clip-path="url(#q)">
        <g clip-path="url(#r)">
            <path d="m 12.460938 61.78125 h 49.964843 v 4.003906 h -49.964843 z m 0 0" fill="#2e5bff"/>
        </g>
    </g>
    <g clip-path="url(#s)">
        <g clip-path="url(#t)">
            <path d="m 12.460938 87.300781 h 49.964843 v 4.003907 h -49.964843 z m 0 0" fill="#2e5bff"/>
        </g>
    </g>
    <g clip-path="url(#u)">
        <g clip-path="url(#v)">
            <g mask="url(#w)">
                <g clip-path="url(#x)" transform="matrix(1 0 0 1 -8 -16)">
                    <path d="m 28.265625 60.269531 h 23.945313 c 0.863281 0 1.558593 0.671875 1.558593 1.5 v 1 c 0 0.832031 -0.695312 1.503907 -1.558593 1.503907 h -23.945313 c -0.859375 0 -1.558594 -0.671876 -1.558594 -1.503907 v -1 c 0 -0.828125 0.699219 -1.5 1.558594 -1.5 z m 0 0" fill="#2e5bff"/>
                </g>
            </g>
            <g mask="url(#y)">
                <g clip-path="url(#z)" transform="matrix(1 0 0 1 -8 -16)">
                    <path d="m 28.265625 87.289062 h 18.738281 c 0.863282 0 1.5625 0.671876 1.5625 1.5 v 1.003907 c 0 0.828125 -0.699218 1.5 -1.5625 1.5 h -18.738281 c -0.859375 0 -1.558594 -0.671875 -1.558594 -1.5 v -1.003907 c 0 -0.828124 0.699219 -1.5 1.558594 -1.5 z m 0 0" fill="#2e5bff"/>
                </g>
            </g>
            <g mask="url(#A)">
                <g clip-path="url(#B)" transform="matrix(1 0 0 1 -8 -16)">
                    <path d="m 28.265625 112.308594 h 21.863281 c 0.863282 0 1.5625 0.671875 1.5625 1.5 v 1.003906 c 0 0.828125 -0.699218 1.5 -1.5625 1.5 h -21.863281 c -0.859375 0 -1.558594 -0.671875 -1.558594 -1.5 v -1.003906 c 0 -0.828125 0.699219 -1.5 1.558594 -1.5 z m 0 0" fill="#2e5bff"/>
                </g>
            </g>
        </g>
    </g>
    <g clip-path="url(#C)">
        <g clip-path="url(#D)">
            <path d="m 106.148438 63.285156 c 0 7.734375 -6.523438 14.007813 -14.574219 14.007813 c -8.046875 0 -14.574219 -6.273438 -14.574219 -14.007813 c 0 -7.738281 6.527344 -14.011718 14.574219 -14.011718 c 8.050781 0 14.574219 6.273437 14.574219 14.011718 z m 0 0" fill="#2e5bff"/>
        </g>
    </g>
    <g clip-path="url(#E)">
        <g clip-path="url(#F)">
            <path d="m 106.230469 62.511719 c 0.714843 11.925781 -7.773438 19.429687 -16.347657 26.492187 c -25.515624 14.976563 -6.035156 0.980469 -4.078124 -13.339844 c 3.8125 -3.882812 6.234374 -9.023437 7.273437 -15.421874" fill="#2e5bff"/>
        </g>
    </g>
</svg>
